<mxfile host="app.diagrams.net" modified="2020-09-08T21:51:01.808Z" agent="5.0 (Macintosh; Intel Mac OS X 10_15_6) AppleWebKit/605.1.15 (KHTML, like Gecko) Version/13.1.2 Safari/605.1.15" etag="tYk4p2A43G8kHR5rox2j" version="13.6.9" type="github">
  <diagram id="prtHgNgQTEPvFCAcTncT" name="Page-1">
    <mxGraphModel dx="1839.5" dy="817" grid="1" gridSize="10" guides="1" tooltips="1" connect="1" arrows="1" fold="1" page="1" pageScale="0.5" pageWidth="827" pageHeight="1169" background="#F0F0F0" math="0" shadow="0">
      <root>
        <mxCell id="0" />
        <mxCell id="1" parent="0" />
        <mxCell id="ULEe8CVzTUl602ywroZ1-12" value="" style="rounded=0;whiteSpace=wrap;html=1;fillColor=#fff2cc;strokeColor=#d6b656;" parent="1" vertex="1">
          <mxGeometry x="-110" y="400" width="120" height="60" as="geometry" />
        </mxCell>
        <mxCell id="ULEe8CVzTUl602ywroZ1-8" value="" style="rounded=0;whiteSpace=wrap;html=1;fillColor=#fff2cc;strokeColor=#d6b656;" parent="1" vertex="1">
          <mxGeometry x="-110" y="161.5" width="120" height="67" as="geometry" />
        </mxCell>
        <mxCell id="C4NGRlxyy_g65lEFCXzj-3" value="FHIR&amp;nbsp;Server (PHI)" style="rounded=1;whiteSpace=wrap;html=1;fillColor=#e1d5e7;shadow=1;strokeColor=#9673a6;" parent="1" vertex="1">
          <mxGeometry y="140" width="90" height="390" as="geometry" />
        </mxCell>
        <mxCell id="C4NGRlxyy_g65lEFCXzj-23" value="&lt;span style=&quot;background-color: rgb(255 , 244 , 195)&quot;&gt;REST&lt;/span&gt;" style="edgeStyle=orthogonalEdgeStyle;rounded=0;orthogonalLoop=1;jettySize=auto;html=1;exitX=1.011;exitY=0.2;exitDx=0;exitDy=0;entryX=-0.011;entryY=0.2;entryDx=0;entryDy=0;entryPerimeter=0;exitPerimeter=0;shadow=0;sketch=0;startArrow=block;startFill=1;strokeWidth=2;endArrow=block;endFill=1;strokeColor=#5C5C5C;" parent="1" source="C4NGRlxyy_g65lEFCXzj-20" target="C4NGRlxyy_g65lEFCXzj-3" edge="1">
          <mxGeometry relative="1" as="geometry" />
        </mxCell>
        <mxCell id="C4NGRlxyy_g65lEFCXzj-20" value="FHIR&amp;nbsp;Server (Facility)" style="rounded=1;whiteSpace=wrap;html=1;fillColor=#ffe6cc;shadow=1;strokeColor=#d79b00;" parent="1" vertex="1">
          <mxGeometry x="-190" y="140" width="90" height="390" as="geometry" />
        </mxCell>
        <mxCell id="6wllx-ECjrWB_K7baaXf-1" value="&lt;h2&gt;&lt;font color=&quot;#ffffff&quot;&gt;1&lt;/font&gt;&lt;/h2&gt;" style="ellipse;whiteSpace=wrap;html=1;aspect=fixed;strokeColor=#82b366;fillColor=#C1E0BC;" parent="1" vertex="1">
          <mxGeometry x="-67" y="173" width="30" height="30" as="geometry" />
        </mxCell>
        <mxCell id="ULEe8CVzTUl602ywroZ1-11" value="&lt;h2&gt;&lt;font color=&quot;#ffffff&quot;&gt;2&lt;/font&gt;&lt;/h2&gt;" style="ellipse;whiteSpace=wrap;html=1;aspect=fixed;strokeColor=#82b366;fillColor=#C1E0BC;" parent="1" vertex="1">
          <mxGeometry x="-160" y="280" width="30" height="30" as="geometry" />
        </mxCell>
        <mxCell id="ULEe8CVzTUl602ywroZ1-13" value="&lt;h2&gt;&lt;font color=&quot;#ffffff&quot;&gt;3&lt;/font&gt;&lt;/h2&gt;" style="ellipse;whiteSpace=wrap;html=1;aspect=fixed;strokeColor=#82b366;fillColor=#C1E0BC;" parent="1" vertex="1">
          <mxGeometry x="-67" y="407" width="30" height="30" as="geometry" />
        </mxCell>
        <mxCell id="mg3wdXvIEjHvZB0tBnMe-2" value="&lt;span style=&quot;background-color: rgb(255 , 244 , 195)&quot;&gt;REST&lt;/span&gt;" style="edgeStyle=orthogonalEdgeStyle;rounded=0;orthogonalLoop=1;jettySize=auto;html=1;exitX=1.011;exitY=0.2;exitDx=0;exitDy=0;entryX=-0.011;entryY=0.2;entryDx=0;entryDy=0;entryPerimeter=0;exitPerimeter=0;shadow=0;sketch=0;startArrow=block;startFill=1;strokeWidth=2;endArrow=block;endFill=1;strokeColor=#5C5C5C;" edge="1" parent="1">
          <mxGeometry relative="1" as="geometry">
            <mxPoint x="-98.00999999999999" y="450" as="sourcePoint" />
            <mxPoint x="0.009999999999990905" y="450" as="targetPoint" />
            <Array as="points">
              <mxPoint x="-17" y="450" />
              <mxPoint x="-17" y="450" />
            </Array>
          </mxGeometry>
        </mxCell>
      </root>
    </mxGraphModel>
  </diagram>
</mxfile>
